<?xml version="1.0" standalone="no"?>
<!DOCTYPE svg PUBLIC "-//W3C//DTD SVG 20010904//EN"
 "http://www.w3.org/TR/2001/REC-SVG-20010904/DTD/svg10.dtd">
<svg version="1.0" xmlns="http://www.w3.org/2000/svg"
 width="1024.000000pt" height="1024.000000pt" viewBox="0 0 1024.000000 1024.000000"
 preserveAspectRatio="xMidYMid meet">

<g transform="translate(0.000000,1024.000000) scale(0.100000,-0.100000)"
fill="#000000" stroke="none">
<path d="M6382 8659 c-24 -7 -118 -96 -335 -317 -647 -658 -815 -827 -900
-903 l-88 -80 -37 29 c-20 17 -97 86 -169 156 -145 137 -174 152 -266 143 -51
-4 -87 -30 -113 -79 -31 -59 -6 -141 64 -214 88 -93 415 -380 449 -396 55 -25
103 -23 149 8 21 14 271 259 554 544 329 332 582 577 700 680 198 172 230 211
230 285 0 46 -27 95 -71 127 -30 23 -120 32 -167 17z"/>
<path d="M7088 7243 c28 -2 76 -2 105 0 28 2 5 3 -53 3 -58 0 -81 -1 -52 -3z"/>
<path d="M3316 7013 c-4 -5 -60 -11 -124 -14 l-117 -5 111 -2 c84 -2 115 2
130 13 10 8 16 15 13 15 -3 0 -9 -3 -13 -7z"/>
<path d="M2928 7003 c6 -2 18 -2 25 0 6 3 1 5 -13 5 -14 0 -19 -2 -12 -5z"/>
<path d="M8040 6719 c-132 -30 -265 -123 -384 -267 -51 -64 -219 -305 -408
-587 -121 -181 -178 -249 -210 -253 -24 -3 -26 -7 -33 -74 -21 -222 -99 -388
-327 -699 -109 -148 -244 -331 -315 -423 -37 -48 -74 -98 -82 -110 -8 -11 -28
-36 -45 -55 -17 -18 -26 -32 -21 -29 6 2 21 9 35 15 14 7 45 21 70 31 43 19
189 123 412 295 58 45 202 155 320 244 117 89 225 174 239 190 15 15 46 62 69
103 39 68 122 204 295 485 34 55 74 124 89 152 14 29 55 96 90 150 35 54 85
139 111 188 27 50 65 113 85 140 20 28 51 77 69 110 54 96 110 176 168 237 57
60 65 87 37 127 -38 53 -120 63 -264 30z"/>
<path d="M2738 6633 c56 -2 148 -2 205 0 56 1 10 3 -103 3 -113 0 -159 -2
-102 -3z"/>
<path d="M3098 6633 c7 -3 16 -2 19 1 4 3 -2 6 -13 5 -11 0 -14 -3 -6 -6z"/>
<path d="M6260 6608 c-55 -10 -115 -51 -155 -108 -29 -40 -30 -46 -30 -144 0
-94 2 -106 32 -166 18 -36 65 -104 106 -152 82 -95 100 -134 118 -263 19 -136
-4 -269 -70 -410 -99 -209 -250 -340 -551 -478 -186 -85 -268 -106 -420 -107
-134 0 -267 28 -406 85 -175 72 -230 106 -444 269 -93 71 -228 143 -341 181
-118 40 -219 55 -379 55 -82 0 -160 4 -174 9 -13 6 -45 26 -71 45 l-46 36 26
10 c78 30 196 52 330 62 131 10 166 9 270 -6 143 -21 204 -45 393 -154 76 -44
144 -82 152 -83 8 -2 46 12 83 31 l69 34 221 7 c177 6 234 11 282 27 179 57
274 152 275 273 0 93 -61 112 -296 90 -65 -6 -308 -16 -539 -21 -583 -14 -656
-21 -786 -65 -57 -20 -132 -45 -165 -56 -34 -10 -126 -46 -205 -80 -79 -33
-173 -72 -209 -85 -85 -32 -266 -134 -355 -198 -359 -261 -774 -774 -1015
-1256 -29 -57 -63 -119 -76 -136 -13 -17 -24 -38 -24 -46 0 -42 183 -371 326
-588 92 -140 234 -325 323 -421 70 -77 75 -75 120 44 35 94 160 327 232 433
138 206 318 401 444 483 110 72 306 166 410 197 l90 27 860 -2 c613 -2 874 1
910 9 155 35 372 219 571 485 61 83 151 200 198 260 81 102 187 256 302 435
61 96 113 202 130 265 18 67 18 244 -2 345 -30 162 -125 371 -197 437 -96 88
-147 147 -173 198 -23 49 -26 63 -20 114 5 41 3 62 -5 66 -24 15 -76 21 -119
13z"/>
<path d="M3536 6445 c-11 -8 -15 -15 -9 -15 6 0 16 7 23 15 16 19 11 19 -14 0z"/>
<path d="M2398 6433 c45 -2 82 -8 82 -13 0 -5 145 -7 338 -5 185 3 418 5 517
7 l180 2 -155 6 c-85 4 -355 7 -600 7 -245 -1 -408 -3 -362 -4z"/>
<path d="M2408 6413 c6 -2 18 -2 25 0 6 3 1 5 -13 5 -14 0 -19 -2 -12 -5z"/>
<path d="M5786 6359 c-14 -11 -26 -26 -26 -32 0 -8 3 -8 8 -2 10 14 46 19 37
6 -3 -7 2 -11 14 -11 13 0 21 -7 21 -17 0 -10 5 -25 10 -33 7 -11 10 3 10 48
0 59 -1 62 -24 62 -13 0 -35 -9 -50 -21z"/>
<path d="M5861 6234 c0 -11 3 -14 6 -6 3 7 2 16 -1 19 -3 4 -6 -2 -5 -13z"/>
<path d="M1779 6152 c-3 -20 -2 -29 4 -23 5 5 7 19 5 32 -3 20 -5 19 -9 -9z"/>
<path d="M8447 6166 c-3 -8 0 -19 7 -25 10 -9 12 -6 8 14 -5 29 -8 31 -15 11z"/>
<path d="M2618 6113 c56 -2 148 -2 205 0 56 1 10 3 -103 3 -113 0 -159 -2
-102 -3z"/>
<path d="M2998 6113 c23 -2 61 -2 85 0 23 2 4 4 -43 4 -47 0 -66 -2 -42 -4z"/>
<path d="M3163 6113 c9 -2 23 -2 30 0 6 3 -1 5 -18 5 -16 0 -22 -2 -12 -5z"/>
<path d="M3238 6113 c18 -2 45 -2 60 0 15 2 0 4 -33 4 -33 0 -45 -2 -27 -4z"/>
<path d="M3378 6113 c7 -3 16 -2 19 1 4 3 -2 6 -13 5 -11 0 -14 -3 -6 -6z"/>
<path d="M1740 6020 c0 -5 5 -10 10 -10 6 0 10 5 10 10 0 6 -4 10 -10 10 -5 0
-10 -4 -10 -10z"/>
<path d="M3482 6010 c0 -14 2 -19 5 -12 2 6 2 18 0 25 -3 6 -5 1 -5 -13z"/>
<path d="M1730 5976 c0 -12 -3 -32 -6 -46 -5 -23 -4 -23 12 5 22 37 25 62 7
62 -7 0 -13 -10 -13 -21z"/>
<path d="M2220 5966 c0 -2 7 -7 16 -10 8 -3 12 -2 9 4 -6 10 -25 14 -25 6z"/>
<path d="M5620 5966 c0 -2 8 -10 18 -17 15 -13 16 -12 3 4 -13 16 -21 21 -21
13z"/>
<path d="M8192 5950 c10 -18 10 -24 1 -27 -8 -3 -13 -24 -13 -55 0 -48 -15
-78 -39 -78 -6 0 -11 -6 -11 -14 0 -8 -20 -32 -45 -53 -32 -29 -43 -45 -39
-60 3 -11 -1 -27 -10 -36 -9 -8 -16 -23 -16 -31 0 -19 -16 -21 -23 -3 -3 7
-15 0 -32 -20 -15 -18 -31 -31 -35 -28 -4 3 -10 -11 -13 -30 -3 -19 -14 -44
-25 -55 -15 -16 -18 -31 -14 -65 8 -75 -17 -153 -31 -97 -4 13 -5 11 -6 -5 -1
-16 -7 -23 -21 -23 -11 0 -17 -5 -15 -13 3 -6 -22 -39 -55 -72 -32 -33 -64
-72 -71 -87 -6 -15 -15 -25 -21 -22 -18 11 -58 -26 -59 -54 0 -15 -3 -21 -6
-13 -4 9 -12 0 -24 -25 -10 -22 -19 -34 -19 -29 -1 6 -7 -6 -15 -25 -7 -19
-17 -34 -22 -33 -5 1 -7 -12 -5 -28 4 -28 2 -30 -19 -27 -19 2 -25 -2 -27 -20
-4 -23 -103 -132 -120 -132 -5 0 -19 -9 -32 -20 -13 -11 -34 -20 -47 -20 -13
0 -34 -9 -46 -21 -12 -11 -36 -27 -54 -34 -17 -7 -39 -25 -48 -39 -11 -16 -26
-26 -42 -26 -13 0 -21 -4 -18 -10 3 -5 -2 -10 -12 -10 -10 0 -41 -19 -68 -43
-92 -79 -546 -392 -727 -500 -53 -32 -118 -67 -145 -77 -26 -10 -81 -35 -122
-55 -45 -23 -95 -39 -128 -42 -30 -3 -57 -12 -60 -19 -7 -20 -92 -35 -148 -26
-27 4 -99 6 -160 5 -145 -4 -136 -4 -400 1 -126 3 -444 7 -705 11 -541 6 -571
4 -745 -67 -129 -53 -207 -105 -327 -218 -160 -150 -303 -345 -429 -585 -64
-120 -133 -308 -124 -336 13 -39 325 -277 524 -398 477 -292 950 -458 1496
-526 141 -17 467 -20 635 -4 494 45 899 158 1319 368 526 264 977 672 1317
1192 173 265 350 619 357 713 1 19 5 32 8 30 12 -7 17 34 5 47 -8 9 -7 10 7 6
10 -4 15 -3 12 2 -3 5 0 13 6 16 5 4 8 13 5 21 -3 8 -1 14 4 14 5 0 7 7 4 15
-4 8 -1 15 6 15 8 0 10 9 6 28 -5 20 -4 23 4 12 10 -15 12 -6 13 67 1 12 5 19
11 16 5 -4 7 1 2 12 -4 10 0 28 9 42 9 13 18 41 20 61 2 20 5 39 6 42 1 3 1 8
0 12 0 4 4 20 10 35 5 15 14 57 19 93 5 36 12 76 15 90 13 53 32 207 30 243
-1 20 2 37 7 37 4 0 8 60 7 133 -1 81 -4 122 -9 107 l-8 -25 -2 25 -2 25 -8
-25 c-8 -24 -8 -24 -9 -2 -1 12 -5 22 -11 22 -5 0 -10 9 -10 20 0 11 -4 20
-10 20 -12 0 -13 37 -1 44 5 3 9 66 10 138 1 91 -2 128 -9 118 -8 -13 -10 -12
-10 3 0 9 -4 17 -10 17 -5 0 -10 -7 -10 -15 0 -8 -4 -15 -10 -15 -15 0 -12 57
3 63 6 3 2 6 -10 6 -16 1 -23 7 -23 21 0 17 -7 20 -40 20 l-40 0 0 60 0 60
-40 0 -40 0 0 40 c0 33 3 40 20 40 18 0 20 7 20 80 0 73 -2 80 -20 80 -11 0
-20 7 -20 15 0 8 -9 15 -20 15 -11 0 -20 -7 -20 -15 0 -8 -9 -15 -20 -15 -11
0 -20 6 -20 14 0 7 -8 16 -17 20 -10 3 -24 9 -31 12 -11 5 -11 2 0 -16z m-166
-1510 c54 0 66 -3 92 -28 38 -36 49 -75 31 -109 -26 -49 -50 -53 -333 -60
l-263 -6 -27 39 c-14 21 -26 46 -26 54 0 12 36 75 57 100 9 10 171 18 287 14
66 -2 147 -4 182 -4z m-88 -544 c30 -27 60 -86 55 -108 -3 -9 -19 -26 -37 -37
-31 -19 -51 -20 -580 -22 -519 -1 -548 0 -568 18 -46 41 -45 105 3 152 l28 28
538 -4 c532 -5 538 -6 561 -27z m-416 -538 c37 -40 47 -92 22 -120 -11 -11
-28 -24 -40 -28 -19 -8 -2062 -15 -3096 -11 l-437 1 -16 30 c-8 16 -15 37 -15
47 0 32 48 92 83 102 20 6 684 10 1751 9 l1720 0 28 -30z m-650 -534 c17 -9
36 -31 44 -50 14 -32 13 -38 -4 -67 -10 -18 -29 -37 -43 -44 -35 -17 -210 -18
-1842 -15 l-1459 2 -35 35 c-29 29 -34 40 -28 63 11 43 52 90 83 94 15 2 753
2 1640 0 1431 -2 1617 -4 1644 -18z m-587 -575 c39 -35 45 -70 19 -107 -38
-54 20 -52 -1212 -52 l-1139 0 -27 21 c-45 36 -51 66 -21 111 14 21 36 43 48
48 12 5 523 9 1159 9 l1137 1 36 -31z"/>
<path d="M3455 5951 c-6 -11 13 -26 22 -17 4 3 1 6 -6 6 -7 0 -9 5 -6 10 3 6
4 10 1 10 -3 0 -7 -4 -11 -9z"/>
<path d="M2240 5925 c0 -8 5 -15 10 -15 6 0 10 -7 10 -15 0 -13 4 -14 21 -4
12 6 19 7 15 1 -8 -13 28 -22 92 -22 39 0 52 -4 52 -15 0 -8 9 -15 20 -15 11
0 20 5 20 10 0 6 9 10 20 10 11 0 20 -4 20 -10 0 -5 9 -10 20 -10 13 0 20 7
20 20 0 18 7 20 58 20 32 0 62 -3 65 -6 4 -4 40 -9 82 -11 64 -3 75 -1 75 13
0 10 5 14 15 11 8 -4 17 -2 21 4 4 7 40 8 98 4 200 -12 232 -13 196 -5 -34 7
-34 7 13 9 30 0 46 -3 42 -9 -3 -5 -1 -10 4 -10 6 0 11 4 11 9 0 5 8 12 18 15
9 3 -35 4 -98 2 -76 -2 -101 -1 -75 5 23 4 -54 6 -180 4 -531 -9 -604 -8 -630
9 -30 20 -35 20 -35 1z m250 -29 c0 -2 -11 -6 -25 -8 -14 -3 -25 -1 -25 3 0 5
11 9 25 9 14 0 25 -2 25 -4z m63 -3 c-7 -2 -21 -2 -30 0 -10 3 -4 5 12 5 17 0
24 -2 18 -5z m80 0 c-7 -2 -19 -2 -25 0 -7 3 -2 5 12 5 14 0 19 -2 13 -5z"/>
<path d="M8136 5931 c-4 -5 3 -7 14 -4 23 6 26 13 6 13 -8 0 -17 -4 -20 -9z"/>
<path d="M3280 5890 c-24 -8 -24 -8 5 -8 17 0 41 4 55 8 24 8 24 8 -5 8 -16 0
-41 -4 -55 -8z"/>
<path d="M2903 5883 c9 -2 25 -2 35 0 9 3 1 5 -18 5 -19 0 -27 -2 -17 -5z"/>
<path d="M5715 5845 c4 -11 14 -40 21 -65 7 -25 13 -36 13 -24 1 26 -18 85
-32 99 -7 7 -7 3 -2 -10z"/>
<path d="M2688 5843 c7 -3 16 -2 19 1 4 3 -2 6 -13 5 -11 0 -14 -3 -6 -6z"/>
<path d="M1701 5813 c0 -25 1 -26 9 -8 12 27 12 35 0 35 -5 0 -10 -12 -9 -27z"/>
<path d="M1800 5820 c0 -13 7 -20 20 -20 13 0 20 -7 20 -20 0 -13 -7 -20 -20
-20 -14 0 -20 -7 -20 -21 0 -18 -4 -20 -32 -15 -44 8 -62 -5 -54 -38 4 -17 13
-26 26 -26 33 0 22 -19 -12 -22 -28 -2 -34 -8 -36 -30 -2 -18 -9 -28 -20 -28
-10 0 -13 3 -7 8 6 4 11 27 12 51 0 26 -2 39 -7 30 -19 -35 -52 -468 -49 -654
2 -123 17 -332 26 -355 3 -8 7 -26 8 -40 8 -69 48 -277 73 -372 26 -103 43
-134 50 -95 2 10 13 28 25 41 19 20 100 149 165 261 9 17 20 32 23 35 4 3 23
32 44 65 21 33 47 70 58 83 11 12 18 22 14 22 -3 0 8 16 26 35 18 19 32 39 32
43 0 8 5 14 50 65 14 15 25 32 25 36 0 5 30 40 68 78 95 97 152 165 146 175
-3 4 2 5 10 2 9 -3 16 -1 16 4 0 6 20 32 45 57 25 26 42 51 39 56 -3 5 2 6 10
3 10 -4 16 -1 16 8 0 7 14 19 31 25 17 7 28 17 24 22 -3 6 -2 11 3 11 6 0 20
11 33 25 13 13 28 25 32 25 4 0 22 14 40 32 32 31 32 31 4 14 -33 -20 -50 -13
-21 9 10 8 29 13 42 11 12 -2 25 1 28 5 3 5 -2 9 -10 9 -9 0 -16 7 -16 15 0 8
-5 15 -11 15 -5 0 -8 -4 -4 -9 3 -5 1 -12 -4 -16 -5 -3 -14 3 -20 12 -9 16
-12 16 -20 3 -6 -8 -13 -11 -17 -8 -3 4 1 15 11 24 13 13 19 14 25 5 6 -10 12
-10 28 -2 25 14 43 14 22 1 -12 -8 -11 -10 8 -10 12 0 22 -6 22 -12 0 -9 4 -8
10 2 5 8 10 11 10 6 0 -5 8 -2 18 6 9 8 40 27 67 43 28 16 53 32 56 37 3 5 23
18 45 30 21 11 41 23 44 27 6 8 44 29 148 82 45 24 82 47 82 52 0 5 -6 5 -13
-1 -7 -6 -24 -9 -38 -6 -17 4 -20 3 -10 -4 18 -13 -2 -25 -43 -24 -19 0 -25
-2 -17 -7 10 -6 9 -10 -3 -14 -11 -5 -16 -1 -16 13 0 11 -4 20 -9 20 -18 0
-41 -12 -41 -22 0 -5 5 -6 10 -3 6 3 10 0 10 -8 0 -16 -21 -27 -51 -27 -10 0
-19 -7 -19 -15 0 -8 -6 -15 -14 -15 -9 0 -12 7 -9 20 3 11 1 20 -5 20 -12 0
-24 -29 -17 -41 9 -13 -14 -49 -30 -49 -8 0 -15 4 -15 8 0 16 -41 10 -47 -6
-4 -9 -11 -20 -17 -24 -7 -5 -4 -8 7 -8 10 0 16 -4 13 -9 -3 -5 -15 -7 -26 -4
-11 3 -18 9 -15 13 2 4 -7 5 -20 2 -31 -6 -33 -29 -2 -35 13 -3 7 -5 -16 -6
-50 -1 -87 33 -87 84 l0 35 -100 0 -100 0 0 60 c0 53 2 60 20 60 13 0 20 7 20
20 0 18 -7 20 -60 20 -53 0 -60 2 -60 20 0 19 -7 20 -100 20 -93 0 -100 -1
-100 -20 0 -18 -7 -20 -60 -20 -53 0 -60 -2 -60 -20 0 -18 -7 -20 -80 -20
l-80 0 0 60 0 60 -60 0 c-53 0 -60 -2 -60 -20 0 -13 -7 -20 -20 -20 -13 0 -20
7 -20 20 0 13 -7 20 -20 20 -13 0 -20 -7 -20 -20z m233 -230 c-3 -12 -8 -19
-11 -16 -5 6 5 36 12 36 2 0 2 -9 -1 -20z m1017 -10 c0 -5 -2 -10 -4 -10 -3 0
-8 5 -11 10 -3 6 -1 10 4 10 6 0 11 -4 11 -10z m-807 -27 c127 7 186 6 203 -2
16 -7 24 -7 24 0 0 15 23 -12 38 -44 21 -49 15 -82 -22 -115 l-34 -29 -188 -8
-188 -7 -29 33 c-21 26 -27 43 -25 68 2 21 -2 36 -10 39 -24 8 -12 29 16 28
23 -1 27 2 24 24 -2 14 1 20 5 14 6 -7 61 -8 186 -1z m-563 -34 c0 -5 -4 -9
-8 -9 -5 0 -9 7 -9 15 0 8 4 12 9 9 4 -3 8 -9 8 -15z m330 -49 c0 -5 -5 -10
-11 -10 -5 0 -7 5 -4 10 3 6 8 10 11 10 2 0 4 -4 4 -10z"/>
<path d="M3495 5790 c-3 -5 -2 -10 4 -10 5 0 13 5 16 10 3 6 2 10 -4 10 -5 0
-13 -4 -16 -10z"/>
<path d="M3465 5780 c-3 -5 -1 -10 4 -10 6 0 11 5 11 10 0 6 -2 10 -4 10 -3 0
-8 -4 -11 -10z"/>
<path d="M3356 5734 c-6 -15 -4 -15 11 -3 10 7 20 15 22 16 2 2 -3 3 -11 3 -9
0 -19 -7 -22 -16z"/>
<path d="M7970 5661 c0 -5 5 -13 10 -16 6 -3 10 -2 10 4 0 5 -4 13 -10 16 -5
3 -10 2 -10 -4z"/>
<path d="M7932 5580 c-7 -11 -10 -20 -7 -20 3 0 14 9 25 20 12 12 15 20 7 20
-7 0 -18 -9 -25 -20z"/>
<path d="M8580 5575 c-8 -10 -10 -16 -5 -13 6 4 11 -13 12 -40 2 -26 7 -60 12
-77 l9 -30 0 35 c0 19 -3 59 -6 89 -7 50 -8 53 -22 36z"/>
<path d="M8606 5344 c-3 -9 -2 -22 2 -31 6 -10 9 -5 9 16 0 35 -2 38 -11 15z"/>
<path d="M5430 5220 c-19 -11 -30 -19 -25 -19 6 0 26 8 45 19 19 11 31 19 25
19 -5 0 -26 -8 -45 -19z"/>
<path d="M8603 5199 c-2 -23 3 -25 10 -4 4 8 3 16 -1 19 -4 3 -9 -4 -9 -15z"/>
<path d="M5330 5184 l-45 -14 40 6 c22 3 47 10 55 15 21 12 3 10 -50 -7z"/>
<path d="M4853 5154 c-10 -5 -10 -8 0 -18 33 -34 77 -39 77 -10 0 11 19 14 92
14 50 0 89 2 87 4 -7 6 -243 15 -256 10z"/>
<path d="M5025 5060 c11 -5 29 -8 40 -8 16 0 15 2 -5 8 -34 11 -60 11 -35 0z"/>
<path d="M7300 4699 c0 -5 5 -7 10 -4 6 3 10 8 10 11 0 2 -4 4 -10 4 -5 0 -10
-5 -10 -11z"/>
<path d="M7671 2380 c-53 -11 -129 -59 -172 -108 -55 -62 -79 -131 -79 -226 0
-72 4 -90 31 -144 34 -68 95 -128 167 -163 38 -19 64 -24 132 -24 77 0 92 3
152 33 74 36 132 95 170 170 32 65 33 195 1 265 -33 70 -115 153 -177 176 -63
23 -166 33 -225 21z m203 -153 c49 -38 86 -96 93 -146 19 -143 -71 -246 -217
-245 -152 1 -220 98 -193 275 19 117 66 150 209 146 61 -2 76 -6 108 -30z"/>
<path d="M7645 2053 c0 -87 4 -151 10 -155 6 -4 22 -8 38 -8 24 0 27 4 27 33
0 45 10 77 24 77 6 0 22 -21 35 -46 30 -56 61 -79 96 -70 30 8 31 19 6 54 -10
15 -24 44 -31 65 -10 33 -10 41 5 57 13 14 16 29 12 56 -9 52 -21 62 -85 69
-31 3 -75 8 -97 11 l-40 4 0 -147z m123 55 c-7 -19 -38 -22 -38 -4 0 10 9 16
21 16 12 0 19 -5 17 -12z"/>
</g>
</svg>
